<?xml version="1.0" encoding="UTF-8"?>
<svg id="Layer_2" data-name="Layer 2" xmlns="http://www.w3.org/2000/svg" viewBox="0 0 803.95 92.59">
  <g id="Layer_1-2" data-name="Layer 1">
    <g>
      <g>
        <path d="M160.35,74.77c0-1.59,0-2.49-.03-3.9h21v2.85c-5.1-.03-10.68-.03-14.28-.03h-3.57v6.18h16.68v2.85c-4.5-.03-7.62-.03-10.92-.03h-5.76v6.66h4.77c3.9,0,11.34,0,13.74-.03v2.85h-21.66c.03-1.47.03-2.52.03-4.83v-12.57Z"/>
        <path d="M186.63,87.4v-12.54c0-1.62,0-2.52-.03-3.99h5.79l7.29,9.45c.96,1.26,4.5,5.91,6.93,9.15h.87c-.03-2.64-.12-7.32-.12-9.75s0-6.48-.03-8.85h3.18c-.03,1.47-.03,2.4-.03,4.05v12.45c0,2.19,0,3.36.03,4.8h-5.52l-7.83-10.05c-1.71-2.19-4.29-5.55-6.57-8.55h-.93c.03,2.49.09,6.3.09,10.05,0,2.1,0,6.15.03,8.55h-3.18c.03-1.65.03-1.86.03-4.77Z"/>
        <path d="M214.83,82v-.96c0-8.16,2.58-10.59,12.54-10.59s12.45,1.89,12.45,7.29l-3,.06c-.06-3.42-1.35-4.44-9.33-4.44s-9.51,1.83-9.51,7.98v.36c0,6.36,1.53,7.98,9.6,7.98s9.21-.93,9.18-5.67h-12.24v-2.82h15.33c-.03.96-.03,1.95-.03,2.79,0,6.81-2.31,8.61-12.36,8.61s-12.63-2.43-12.63-10.59Z"/>
        <path d="M244.29,74.77c0-1.59,0-2.46-.03-3.9h3.18c-.03,1.44-.03,2.31-.03,3.9v12.54c0,2.67,0,3.24.03,4.86h-3.18c.03-1.5.03-2.52.03-4.83v-12.57Z"/>
        <path d="M252.59,87.4v-12.54c0-1.62,0-2.52-.03-3.99h5.79l7.29,9.45c.96,1.26,4.5,5.91,6.93,9.15h.87c-.03-2.64-.12-7.32-.12-9.75s0-6.48-.03-8.85h3.18c-.03,1.47-.03,2.4-.03,4.05v12.45c0,2.19,0,3.36.03,4.8h-5.52l-7.83-10.05c-1.71-2.19-4.29-5.55-6.57-8.55h-.93c.03,2.49.09,6.3.09,10.05,0,2.1,0,6.15.03,8.55h-3.18c.03-1.65.03-1.86.03-4.77Z"/>
        <path d="M281.63,74.77c0-1.59,0-2.49-.03-3.9h21v2.85c-5.1-.03-10.68-.03-14.28-.03h-3.57v6.18h16.68v2.85c-4.5-.03-7.62-.03-10.92-.03h-5.76v6.66h4.77c3.9,0,11.34,0,13.74-.03v2.85h-21.66c.03-1.47.03-2.52.03-4.83v-12.57Z"/>
        <path d="M307.46,74.77c0-1.59,0-2.49-.03-3.9h21v2.85c-5.1-.03-10.68-.03-14.28-.03h-3.57v6.18h16.68v2.85c-4.5-.03-7.62-.03-10.92-.03h-5.76v6.66h4.77c3.9,0,11.34,0,13.74-.03v2.85h-21.66c.03-1.47.03-2.52.03-4.83v-12.57Z"/>
        <path d="M333.29,74.77c0-1.59,0-2.49-.03-3.9h14.49c7.05,0,8.88,1.62,8.88,6.21v.12c0,3.75-1.29,5.79-5.52,6.51.72,1.02,1.53,2.16,2.34,3.39,1.02,1.56,2.16,3.24,3.45,5.07h-3.66c-.87-1.41-1.77-2.82-2.73-4.17l-2.82-3.99h-11.28v3.3c0,2.67,0,3.27.03,4.86h-3.18c.03-1.47.03-2.52.03-4.83v-12.57ZM336.41,73.66v7.56h11.34c4.53,0,5.64-1.2,5.64-3.96v-.06c0-2.64-1.11-3.54-5.64-3.54h-11.34Z"/>
        <path d="M360.8,74.77c0-1.59,0-2.49-.03-3.9h21v2.85c-5.1-.03-10.68-.03-14.28-.03h-3.57v6.18h16.68v2.85c-4.5-.03-7.62-.03-10.92-.03h-5.76v6.66h4.77c3.9,0,11.34,0,13.74-.03v2.85h-21.66c.03-1.47.03-2.52.03-4.83v-12.57Z"/>
        <path d="M386.63,74.86c0-1.62,0-2.55-.03-3.99h11.58c10.23,0,12.81,2.37,12.81,10.47v.36c0,8.1-2.58,10.47-12.84,10.47h-11.55c.03-1.65.03-2.76.03-4.77v-12.54ZM389.75,73.69v15.66h8.4c8.16,0,9.69-1.59,9.69-7.65v-.36c0-6.06-1.53-7.65-9.66-7.65h-8.43Z"/>
        <path d="M422.81,86.32v-.6l3-.09v.72c0,2.82,1.53,3.39,9.99,3.39,7.29,0,8.22-.81,8.22-3.15,0-2.22-1.05-3.03-9.09-3.66-10.35-.81-11.91-2.04-11.91-6.39s1.68-6.09,11.16-6.09c9.96,0,11.88,1.59,11.88,5.91v.54l-3,.09v-.63c0-2.34-1.29-3.09-8.91-3.09-6.93,0-7.98.87-7.98,3,0,2.28.84,3.03,8.97,3.6,10.47.75,12.03,2.34,12.03,6.66s-1.62,6.06-11.37,6.06c-10.83,0-12.99-1.23-12.99-6.27Z"/>
        <path d="M474.95,74.83v2.31c0,1.68.03,3.75.03,6.57,0,6.45-2.43,8.88-12.24,8.88s-12.24-2.43-12.24-8.88c0-2.82.03-4.89.03-6.57v-2.4c0-1.59,0-2.85-.03-3.87h3.18c-.03,1.14-.03,2.46-.03,3.9v8.58c0,4.92,1.41,6.33,9.09,6.33s9.09-1.41,9.09-6.33v-8.55c0-1.47,0-2.79-.03-3.93h3.18c-.03,1.02-.03,2.31-.03,3.96Z"/>
        <path d="M479.66,74.77c0-1.59,0-2.49-.03-3.9h14.49c7.05,0,8.88,1.62,8.88,6.21v.12c0,3.75-1.29,5.79-5.52,6.51.72,1.02,1.53,2.16,2.34,3.39,1.02,1.56,2.16,3.24,3.45,5.07h-3.66c-.87-1.41-1.77-2.82-2.73-4.17l-2.82-3.99h-11.28v3.3c0,2.67,0,3.27.03,4.86h-3.18c.03-1.47.03-2.52.03-4.83v-12.57ZM482.78,73.66v7.56h11.34c4.53,0,5.64-1.2,5.64-3.96v-.06c0-2.64-1.11-3.54-5.64-3.54h-11.34Z"/>
        <path d="M506.99,74.77c0-1.59,0-2.49-.03-3.9h20.58v2.85c-2.1-.03-6.36-.03-11.16-.03h-6.27v6.3h16.08v2.85c-2.1-.03-7.47-.03-11.04-.03h-5.04v4.5c0,2.67,0,3.24.03,4.86h-3.18c.03-1.5.03-2.52.03-4.83v-12.57Z"/>
        <path d="M541.25,70.87c2.01,4.23,8.28,17.22,10.32,21.3h-3.51l-2.25-4.71h-15.54l-2.31,4.71h-3.27c2.13-4.08,8.52-17.04,10.59-21.3h5.97ZM531.62,84.7h12.9l-1.53-3.21c-1.29-2.73-2.58-5.46-3.6-7.62h-2.52c-1.02,2.16-2.37,4.95-3.69,7.65l-1.56,3.18Z"/>
        <path d="M552.35,82v-.96c0-8.16,2.58-10.59,12.54-10.59s12.45,2.13,12.45,8.19l-3,.09c0-4.14-1.35-5.37-9.33-5.37s-9.51,1.83-9.51,7.98v.36c0,6.36,1.53,7.98,9.51,7.98s9.27-1.23,9.33-5.37l3,.09c0,6.06-2.4,8.19-12.45,8.19s-12.54-2.43-12.54-10.59Z"/>
        <path d="M581,74.77c0-1.59,0-2.49-.03-3.9h21v2.85c-5.1-.03-10.68-.03-14.28-.03h-3.57v6.18h16.68v2.85c-4.5-.03-7.62-.03-10.92-.03h-5.76v6.66h4.77c3.9,0,11.34,0,13.74-.03v2.85h-21.66c.03-1.47.03-2.52.03-4.83v-12.57Z"/>
        <path d="M605.42,86.32v-.6l3-.09v.72c0,2.82,1.53,3.39,9.99,3.39,7.29,0,8.22-.81,8.22-3.15,0-2.22-1.05-3.03-9.09-3.66-10.35-.81-11.91-2.04-11.91-6.39s1.68-6.09,11.16-6.09c9.96,0,11.88,1.59,11.88,5.91v.54l-3,.09v-.63c0-2.34-1.29-3.09-8.91-3.09-6.93,0-7.98.87-7.98,3,0,2.28.84,3.03,8.97,3.6,10.47.75,12.03,2.34,12.03,6.66s-1.62,6.06-11.37,6.06c-10.83,0-12.99-1.23-12.99-6.27Z"/>
      </g>
      <g>
        <g>
          <path d="M160.11,12.4c0-2.85,0-4.99-.06-7.13h14.26c-.06,2.2-.06,4.16-.06,7.13v7.66h7.96c1.96-1.96,3.57-3.68,4.99-5.17l9.09-9.63h17.29l.06.12c-4.04,3.92-13.84,13.67-20.08,19.79,6.42,6.71,17.35,17.88,21.69,22.16l-.06.12h-17.41l-7.9-8.2c-1.84-1.96-4.28-4.46-7.31-7.61h-8.32v6.3c0,3.92,0,6.83.06,9.51h-14.26c.06-2.61.06-5.53.06-9.51V12.4Z"/>
          <path d="M259.3,5.27c4.1,9.63,14.62,34.1,18.24,42.19h-15.51l-2.14-5.53h-24.3l-2.08,5.53h-15.03c3.62-8.08,14.26-32.56,18.36-42.19h22.46ZM239.75,30.88h15.86c-1.66-4.4-3.45-8.97-5.05-13.25h-5.88c-1.49,4.16-3.21,8.62-4.81,12.95l-.12.3Z"/>
          <path d="M282.32,47.45c.06-2.61.06-5.41.06-9.33V12.46c0-2.91,0-5.05-.06-7.19h14.26c-.06,2.14-.06,4.28-.06,7.13v22.52h10.58c7.67,0,16.76,0,21.51-.06v12.6h-46.28Z"/>
          <path d="M337.42,12.4c0-2.85,0-4.99-.06-7.13h14.26c-.06,2.2-.06,4.16-.06,7.13v25.55c0,3.92,0,6.83.06,9.51h-14.26c.06-2.61.06-5.53.06-9.51V12.4Z"/>
          <path d="M360.43,38.36V12.76c0-3.03,0-5.29-.06-7.49h22.52l9.86,16.46c3.03,5.05,5.76,9.8,7.9,13.49h.77c-.12-4.93-.24-14.32-.24-17.17,0-4.16,0-8.08-.06-12.77h13.67c-.06,2.2-.06,4.46-.06,7.49v24.78c0,4.46,0,7.01.06,9.92h-22.46l-9.33-15.57c-3.15-5.23-6-10.04-8.5-14.38h-.71c.06,6.6.18,14.85.18,17.17,0,4.16,0,8.02.06,12.77h-13.66c.06-2.61.06-5.29.06-9.09Z"/>
          <path d="M422.55,27.31v-1.9c0-15.86,5.29-20.97,28.1-20.97s27.75,2.79,27.51,15.51l-14.08.24v-.42c0-2.02-1.37-2.97-13.01-2.97-12.48,0-13.96,1.66-13.96,9.45v.24c0,8.26,1.49,9.98,13.55,9.98,13.01,0,14.02-.53,14.02-2.5v-1.83h-18.84v-8.53h32.5c-.06,1.32-.06,5.72-.06,7.56,0,14.32-4.75,17.11-27.63,17.11s-28.1-5.17-28.1-20.97Z"/>
          <path d="M522.34,5.27c4.1,9.63,14.62,34.1,18.24,42.19h-15.51l-2.14-5.53h-24.3l-2.08,5.53h-15.03c3.62-8.08,14.26-32.56,18.36-42.19h22.46ZM502.8,30.88h15.86c-1.66-4.4-3.45-8.97-5.05-13.25h-5.88c-1.49,4.16-3.21,8.62-4.81,12.95l-.12.3Z"/>
          <path d="M547.75,35.87v-1.19l5.94-.18v1.43c0,5.58,3.03,6.71,19.79,6.71,14.44,0,16.28-1.6,16.28-6.24s-2.08-6-18-7.25c-20.5-1.6-23.59-4.04-23.59-12.66s3.33-12.06,22.1-12.06c19.73,0,23.53,3.15,23.53,11.7v1.07l-5.94.18v-1.25c0-4.63-2.56-6.12-17.65-6.12-13.72,0-15.81,1.72-15.81,5.94,0,4.52,1.66,6,17.77,7.13,20.74,1.49,23.83,4.64,23.83,13.19s-3.21,12-22.52,12c-21.45,0-25.73-2.44-25.73-12.42Z"/>
          <path d="M620.06,10.91h-7.07c-6.54,0-10.46,0-15.21.06v-5.7h50.74v5.7c-4.75-.06-8.67-.06-11.05-.06h-11.23v26.92c0,5.29,0,6.42.06,9.63h-6.3c.06-2.97.06-4.99.06-9.57V10.91Z"/>
          <path d="M650.24,27.31v-1.9c0-16.16,5.11-20.97,25.43-20.97s25.43,4.81,25.43,20.97v1.9c0,16.16-5.11,20.97-25.43,20.97s-25.43-4.81-25.43-20.97ZM694.86,26.72v-.71c0-12.6-3.03-15.81-19.19-15.81s-19.19,3.62-19.19,15.81v.71c0,12.6,3.03,15.81,19.19,15.81s19.19-3.21,19.19-15.81Z"/>
          <path d="M707.46,38.01V13.17c0-3.21,0-4.99-.06-7.9h11.47l14.44,18.72c1.9,2.5,8.91,11.7,13.73,18.12h1.72c-.06-5.23-.24-14.5-.24-19.31s0-12.83-.06-17.53h6.3c-.06,2.91-.06,4.75-.06,8.02v24.66c0,4.34,0,6.65.06,9.51h-10.93l-15.51-19.9c-3.39-4.34-8.5-10.99-13.01-16.93h-1.84c.06,4.93.18,12.48.18,19.9,0,4.16,0,12.18.06,16.93h-6.3c.06-3.27.06-3.68.06-9.45Z"/>
          <path d="M761.11,12.99c0-3.15,0-4.93-.06-7.72h41.59v5.64c-10.1-.06-21.15-.06-28.28-.06h-7.07v12.24h33.03v5.64c-8.91-.06-15.09-.06-21.63-.06h-11.41v13.19h9.45c7.72,0,22.46,0,27.21-.06v5.64h-42.9c.06-2.91.06-4.99.06-9.57V12.99Z"/>
        </g>
        <g>
          <g>
            <polygon points="0 18.49 9.95 18.49 27.55 0 0 0 0 18.49"/>
            <polygon points="10.4 32.97 0 32.97 0 52.72 29.41 52.72 10.4 32.97"/>
            <polygon points="24.13 27.62 51.16 52.72 51.16 0 24.13 27.62"/>
          </g>
          <g>
            <polygon points="115.02 32.97 125.42 32.97 125.42 52.72 96.01 52.72 115.02 32.97"/>
            <polygon points="125.42 0 97.86 0 115.47 18.49 125.42 18.49 125.42 0"/>
            <polygon points="74.25 0 74.25 52.72 101.28 27.62 74.25 0"/>
          </g>
        </g>
      </g>
    </g>
  </g>
</svg>